<svg xmlns="http://www.w3.org/2000/svg" viewBox="0 0 371.85 74.16"><defs><style>.cls-1,.cls-2{fill:#303c48;}.cls-2{font-size:27.46px;font-family:Montserrat-Bold, Montserrat;font-weight:700;}.cls-3{letter-spacing:0em;}.cls-4{letter-spacing:0em;}.cls-5{letter-spacing:-0.01em;}.cls-6{letter-spacing:-0.01em;}.cls-7{letter-spacing:0.01em;}.cls-8{letter-spacing:-0.01em;}.cls-9{letter-spacing:0em;}.cls-10{letter-spacing:0em;}</style></defs><title>iso</title><g id="Layer_2" data-name="Layer 2"><g id="Footer"><g id="UkBVcP"><path class="cls-1" d="M1.65,26.87c.71-2.83,1.62-6,6.72-12.48C16.52,4,36.63-4.5,54,5.85c-.2-.28-4.1,6.73-4.07,6.7a44.32,44.32,0,0,0-19.33-1.41c-14.26,2.54-22,15.32-20.9,29.5,1,13.89,12.21,25.21,25.42,26.55,20,2,32.92-14,34.58-29.88.33-3.2.05-6.48.79-9.7,1.9,8.55,2.16,18.6-.84,25.73-3.32,7.91-6.16,12.72-13.07,16.72C47.81,75.17,32.81,74.68,27.73,73c-5.53-1.82-13.21-4.73-17-9-4.73-5.24-7-7-10-19.11C-.72,39.08.21,32.71,1.65,26.87Z"/><path class="cls-1" d="M65.19,0c-8.26,21.25-18,41.79-27.88,63.83-6.67-14.35-12.53-27-18.77-40.42l10-7.09,8.82,19.83C47.51,24,55.3,11.29,65.19,0Z"/></g><text class="cls-2" transform="translate(83.12 31.67) scale(1.03 1)">R<tspan class="cls-3" x="20.19" y="0">E</tspan><tspan class="cls-4" x="38.56" y="0">GI</tspan><tspan class="cls-5" x="68.74" y="0">S</tspan><tspan x="85.99" y="0">TERED</tspan><tspan x="0" y="28.38">ISO 90</tspan><tspan class="cls-6" x="93.62" y="28.38">0</tspan><tspan x="112.1" y="28.38">1 </tspan><tspan class="cls-7" x="130.64" y="28.38">&amp;</tspan><tspan x="150.83" y="28.38">AS </tspan><tspan class="cls-8" x="197.16" y="28.38">9</tspan><tspan class="cls-9" x="214.49" y="28.38">1</tspan><tspan class="cls-10" x="225.25" y="28.38">2</tspan><tspan x="241.4" y="28.38">0B</tspan></text></g></g></svg>